<svg width="32" height="33" viewBox="0 0 32 33" fill="none" xmlns="http://www.w3.org/2000/svg">
<path fill-rule="evenodd" clip-rule="evenodd" d="M27.203 18.6068C27.68 18.8601 28.0479 19.2601 28.3068 19.6601C28.8109 20.4868 28.77 21.5001 28.2795 22.3935L27.3257 23.9935C26.8215 24.8468 25.8813 25.3801 24.9139 25.3801C24.4369 25.3801 23.9055 25.2468 23.4695 24.9801C23.1152 24.7535 22.7064 24.6735 22.2704 24.6735C20.9214 24.6735 19.7904 25.7801 19.7496 27.1001C19.7496 28.6335 18.496 29.8335 16.929 29.8335H15.0758C13.4952 29.8335 12.2416 28.6335 12.2416 27.1001C12.2143 25.7801 11.0834 24.6735 9.73439 24.6735C9.28473 24.6735 8.87594 24.7535 8.53529 24.9801C8.09926 25.2468 7.55421 25.3801 7.09092 25.3801C6.10985 25.3801 5.16964 24.8468 4.66548 23.9935L3.72528 22.3935C3.22111 21.5268 3.19386 20.4868 3.69803 19.6601C3.91604 19.2601 4.32483 18.8601 4.78811 18.6068C5.16964 18.4201 5.41491 18.1135 5.64656 17.7535C6.32786 16.6068 5.91908 15.1001 4.76086 14.4201C3.41188 13.6601 2.97584 11.9668 3.75253 10.6468L4.66548 9.07348C5.45579 7.75348 7.14543 7.28681 8.50804 8.06014C9.69351 8.70014 11.2333 8.27348 11.9282 7.14014C12.1462 6.76681 12.2688 6.36681 12.2416 5.96681C12.2143 5.44681 12.3642 4.95348 12.6231 4.55348C13.1273 3.72681 14.0402 3.19348 15.0349 3.16681H16.9562C17.9646 3.16681 18.8775 3.72681 19.3817 4.55348C19.6269 4.95348 19.7904 5.44681 19.7496 5.96681C19.7223 6.36681 19.845 6.76681 20.063 7.14014C20.7579 8.27348 22.2976 8.70014 23.4967 8.06014C24.8457 7.28681 26.549 7.75348 27.3257 9.07348L28.2386 10.6468C29.0289 11.9668 28.5929 13.6601 27.2303 14.4201C26.0721 15.1001 25.6633 16.6068 26.3582 17.7535C26.5762 18.1135 26.8215 18.4201 27.203 18.6068ZM12.1462 16.5135C12.1462 18.6068 13.8767 20.2735 16.016 20.2735C18.1553 20.2735 19.845 18.6068 19.845 16.5135C19.845 14.4201 18.1553 12.7401 16.016 12.7401C13.8767 12.7401 12.1462 14.4201 12.1462 16.5135Z" fill="white"/>
</svg>
